<mxfile host="app.diagrams.net" modified="2024-03-22T21:54:13.154Z" agent="Mozilla/5.0 (Macintosh; Intel Mac OS X 10_15_7) AppleWebKit/537.36 (KHTML, like Gecko) Chrome/123.0.0.0 Safari/537.36" etag="EeRaHm6mm36dVZttOW4y" version="24.0.7" type="github">
  <diagram name="Page-1" id="sh8ykiF0knSkxBJXVvDX">
    <mxGraphModel dx="3491" dy="2103" grid="1" gridSize="10" guides="1" tooltips="1" connect="1" arrows="1" fold="1" page="1" pageScale="1" pageWidth="850" pageHeight="1100" math="0" shadow="0">
      <root>
        <mxCell id="0" />
        <mxCell id="1" parent="0" />
        <mxCell id="TIKX9eycbTkuqXLnJjCn-144" value="" style="rounded=1;whiteSpace=wrap;html=1;dashed=1;strokeColor=#666666;fillColor=#f5f5f5;fontColor=#333333;" parent="1" vertex="1">
          <mxGeometry x="1750" y="288" width="1560" height="712" as="geometry" />
        </mxCell>
        <mxCell id="TIKX9eycbTkuqXLnJjCn-42" value="" style="rounded=1;whiteSpace=wrap;html=1;dashed=1;strokeColor=#666666;fillColor=#f5f5f5;fontColor=#333333;" parent="1" vertex="1">
          <mxGeometry x="-130" y="270" width="1690" height="710" as="geometry" />
        </mxCell>
        <mxCell id="TIKX9eycbTkuqXLnJjCn-10" value="" style="rounded=1;whiteSpace=wrap;html=1;" parent="1" vertex="1">
          <mxGeometry x="-75" y="560" width="230" height="210.88" as="geometry" />
        </mxCell>
        <mxCell id="TIKX9eycbTkuqXLnJjCn-9" value="" style="rounded=1;whiteSpace=wrap;html=1;fillColor=#f5f5f5;fontColor=#333333;strokeColor=#666666;" parent="1" vertex="1">
          <mxGeometry x="438" y="100" width="500" height="117" as="geometry" />
        </mxCell>
        <mxCell id="TIKX9eycbTkuqXLnJjCn-6" value="" style="rounded=1;whiteSpace=wrap;html=1;" parent="1" vertex="1">
          <mxGeometry x="1290" y="324" width="206" height="291.75" as="geometry" />
        </mxCell>
        <mxCell id="TIKX9eycbTkuqXLnJjCn-44" style="edgeStyle=orthogonalEdgeStyle;rounded=0;orthogonalLoop=1;jettySize=auto;html=1;entryX=0;entryY=0.5;entryDx=0;entryDy=0;strokeWidth=3;strokeColor=#006633;" parent="1" source="TIKX9eycbTkuqXLnJjCn-5" target="TIKX9eycbTkuqXLnJjCn-9" edge="1">
          <mxGeometry relative="1" as="geometry">
            <Array as="points">
              <mxPoint x="40" y="159" />
              <mxPoint x="297" y="159" />
            </Array>
          </mxGeometry>
        </mxCell>
        <mxCell id="TIKX9eycbTkuqXLnJjCn-5" value="" style="rounded=1;whiteSpace=wrap;html=1;" parent="1" vertex="1">
          <mxGeometry x="-75" y="324" width="230" height="172" as="geometry" />
        </mxCell>
        <mxCell id="TIKX9eycbTkuqXLnJjCn-41" style="edgeStyle=orthogonalEdgeStyle;rounded=0;orthogonalLoop=1;jettySize=auto;html=1;strokeWidth=3;strokeColor=#006633;" parent="1" source="TIKX9eycbTkuqXLnJjCn-4" target="buvXnp-66d20s14vqZSp-45" edge="1">
          <mxGeometry relative="1" as="geometry" />
        </mxCell>
        <mxCell id="TIKX9eycbTkuqXLnJjCn-4" value="" style="rounded=1;whiteSpace=wrap;html=1;" parent="1" vertex="1">
          <mxGeometry x="563" y="328" width="230" height="443.5" as="geometry" />
        </mxCell>
        <mxCell id="TIKX9eycbTkuqXLnJjCn-3" value="" style="rounded=1;whiteSpace=wrap;html=1;" parent="1" vertex="1">
          <mxGeometry x="240" y="328" width="230" height="443.5" as="geometry" />
        </mxCell>
        <mxCell id="TIKX9eycbTkuqXLnJjCn-2" value="" style="rounded=1;whiteSpace=wrap;html=1;" parent="1" vertex="1">
          <mxGeometry x="880" y="324" width="310" height="443.5" as="geometry" />
        </mxCell>
        <mxCell id="buvXnp-66d20s14vqZSp-1" value="" style="rounded=1;whiteSpace=wrap;html=1;" parent="1" vertex="1">
          <mxGeometry x="-40" y="380" width="120" height="60" as="geometry" />
        </mxCell>
        <mxCell id="buvXnp-66d20s14vqZSp-2" value="" style="shape=cylinder3;whiteSpace=wrap;html=1;boundedLbl=1;backgroundOutline=1;size=15;" parent="1" vertex="1">
          <mxGeometry x="568" y="122" width="60" height="80" as="geometry" />
        </mxCell>
        <mxCell id="buvXnp-66d20s14vqZSp-3" value="" style="shape=cylinder3;whiteSpace=wrap;html=1;boundedLbl=1;backgroundOutline=1;size=15;" parent="1" vertex="1">
          <mxGeometry x="658" y="122" width="60" height="80" as="geometry" />
        </mxCell>
        <mxCell id="buvXnp-66d20s14vqZSp-4" value="" style="shape=cylinder3;whiteSpace=wrap;html=1;boundedLbl=1;backgroundOutline=1;size=15;" parent="1" vertex="1">
          <mxGeometry x="748" y="122" width="60" height="80" as="geometry" />
        </mxCell>
        <mxCell id="buvXnp-66d20s14vqZSp-5" value="" style="shape=cylinder3;whiteSpace=wrap;html=1;boundedLbl=1;backgroundOutline=1;size=15;" parent="1" vertex="1">
          <mxGeometry x="838" y="122" width="60" height="80" as="geometry" />
        </mxCell>
        <mxCell id="buvXnp-66d20s14vqZSp-6" value="" style="shape=cylinder3;whiteSpace=wrap;html=1;boundedLbl=1;backgroundOutline=1;size=15;" parent="1" vertex="1">
          <mxGeometry x="478" y="122" width="60" height="80" as="geometry" />
        </mxCell>
        <mxCell id="buvXnp-66d20s14vqZSp-7" value="" style="rounded=1;whiteSpace=wrap;html=1;" parent="1" vertex="1">
          <mxGeometry x="-30" y="390" width="120" height="60" as="geometry" />
        </mxCell>
        <mxCell id="buvXnp-66d20s14vqZSp-8" value="" style="rounded=1;whiteSpace=wrap;html=1;" parent="1" vertex="1">
          <mxGeometry x="-20" y="400" width="120" height="60" as="geometry" />
        </mxCell>
        <mxCell id="buvXnp-66d20s14vqZSp-9" value="" style="rounded=1;whiteSpace=wrap;html=1;" parent="1" vertex="1">
          <mxGeometry x="-30" y="641.25" width="120" height="60" as="geometry" />
        </mxCell>
        <mxCell id="buvXnp-66d20s14vqZSp-10" value="" style="rounded=1;whiteSpace=wrap;html=1;" parent="1" vertex="1">
          <mxGeometry x="-20" y="651.25" width="120" height="60" as="geometry" />
        </mxCell>
        <mxCell id="buvXnp-66d20s14vqZSp-11" value="" style="rounded=1;whiteSpace=wrap;html=1;" parent="1" vertex="1">
          <mxGeometry x="-10" y="661.25" width="120" height="60" as="geometry" />
        </mxCell>
        <mxCell id="buvXnp-66d20s14vqZSp-12" value="" style="shape=cylinder3;whiteSpace=wrap;html=1;boundedLbl=1;backgroundOutline=1;size=15;rotation=90;" parent="1" vertex="1">
          <mxGeometry x="320" y="340" width="60" height="160" as="geometry" />
        </mxCell>
        <mxCell id="buvXnp-66d20s14vqZSp-13" value="" style="shape=cylinder3;whiteSpace=wrap;html=1;boundedLbl=1;backgroundOutline=1;size=15;rotation=90;" parent="1" vertex="1">
          <mxGeometry x="320" y="430" width="60" height="160" as="geometry" />
        </mxCell>
        <mxCell id="buvXnp-66d20s14vqZSp-14" value="" style="shape=cylinder3;whiteSpace=wrap;html=1;boundedLbl=1;backgroundOutline=1;size=15;rotation=90;" parent="1" vertex="1">
          <mxGeometry x="320" y="520" width="60" height="160" as="geometry" />
        </mxCell>
        <mxCell id="buvXnp-66d20s14vqZSp-15" value="" style="shape=cylinder3;whiteSpace=wrap;html=1;boundedLbl=1;backgroundOutline=1;size=15;rotation=90;fillColor=#fff2cc;strokeColor=#d6b656;" parent="1" vertex="1">
          <mxGeometry x="320" y="600" width="60" height="160" as="geometry" />
        </mxCell>
        <mxCell id="buvXnp-66d20s14vqZSp-16" value="" style="rounded=1;whiteSpace=wrap;html=1;" parent="1" vertex="1">
          <mxGeometry x="608" y="380" width="120" height="60" as="geometry" />
        </mxCell>
        <mxCell id="buvXnp-66d20s14vqZSp-17" value="" style="rounded=1;whiteSpace=wrap;html=1;" parent="1" vertex="1">
          <mxGeometry x="618" y="390" width="120" height="60" as="geometry" />
        </mxCell>
        <mxCell id="buvXnp-66d20s14vqZSp-18" value="" style="rounded=1;whiteSpace=wrap;html=1;" parent="1" vertex="1">
          <mxGeometry x="628" y="400" width="120" height="60" as="geometry" />
        </mxCell>
        <mxCell id="buvXnp-66d20s14vqZSp-19" value="" style="rounded=1;whiteSpace=wrap;html=1;" parent="1" vertex="1">
          <mxGeometry x="608" y="510" width="120" height="60" as="geometry" />
        </mxCell>
        <mxCell id="buvXnp-66d20s14vqZSp-20" value="" style="rounded=1;whiteSpace=wrap;html=1;" parent="1" vertex="1">
          <mxGeometry x="618" y="520" width="120" height="60" as="geometry" />
        </mxCell>
        <mxCell id="buvXnp-66d20s14vqZSp-21" value="" style="rounded=1;whiteSpace=wrap;html=1;" parent="1" vertex="1">
          <mxGeometry x="628" y="530" width="120" height="60" as="geometry" />
        </mxCell>
        <mxCell id="buvXnp-66d20s14vqZSp-22" value="" style="rounded=1;whiteSpace=wrap;html=1;" parent="1" vertex="1">
          <mxGeometry x="608" y="640" width="120" height="60" as="geometry" />
        </mxCell>
        <mxCell id="buvXnp-66d20s14vqZSp-23" value="" style="rounded=1;whiteSpace=wrap;html=1;" parent="1" vertex="1">
          <mxGeometry x="618" y="650" width="120" height="60" as="geometry" />
        </mxCell>
        <mxCell id="buvXnp-66d20s14vqZSp-24" value="" style="rounded=1;whiteSpace=wrap;html=1;" parent="1" vertex="1">
          <mxGeometry x="628" y="660" width="120" height="60" as="geometry" />
        </mxCell>
        <mxCell id="buvXnp-66d20s14vqZSp-25" value="" style="shape=cylinder3;whiteSpace=wrap;html=1;boundedLbl=1;backgroundOutline=1;size=15;" parent="1" vertex="1">
          <mxGeometry x="910" y="359.25" width="60" height="80" as="geometry" />
        </mxCell>
        <mxCell id="buvXnp-66d20s14vqZSp-26" value="" style="shape=cylinder3;whiteSpace=wrap;html=1;boundedLbl=1;backgroundOutline=1;size=15;" parent="1" vertex="1">
          <mxGeometry x="910" y="459.25" width="60" height="80" as="geometry" />
        </mxCell>
        <mxCell id="buvXnp-66d20s14vqZSp-27" value="" style="shape=cylinder3;whiteSpace=wrap;html=1;boundedLbl=1;backgroundOutline=1;size=15;" parent="1" vertex="1">
          <mxGeometry x="910" y="559.25" width="60" height="80" as="geometry" />
        </mxCell>
        <mxCell id="buvXnp-66d20s14vqZSp-29" value="" style="shape=cylinder3;whiteSpace=wrap;html=1;boundedLbl=1;backgroundOutline=1;size=15;rotation=90;" parent="1" vertex="1">
          <mxGeometry x="1358" y="324" width="60" height="160" as="geometry" />
        </mxCell>
        <mxCell id="buvXnp-66d20s14vqZSp-30" value="" style="shape=cylinder3;whiteSpace=wrap;html=1;boundedLbl=1;backgroundOutline=1;size=15;rotation=90;" parent="1" vertex="1">
          <mxGeometry x="1358" y="397" width="60" height="160" as="geometry" />
        </mxCell>
        <mxCell id="buvXnp-66d20s14vqZSp-31" value="" style="shape=cylinder3;whiteSpace=wrap;html=1;boundedLbl=1;backgroundOutline=1;size=15;rotation=90;" parent="1" vertex="1">
          <mxGeometry x="1358" y="474" width="60" height="160" as="geometry" />
        </mxCell>
        <mxCell id="buvXnp-66d20s14vqZSp-32" value="" style="shape=cylinder3;whiteSpace=wrap;html=1;boundedLbl=1;backgroundOutline=1;size=15;" parent="1" vertex="1">
          <mxGeometry x="910" y="659.25" width="60" height="80" as="geometry" />
        </mxCell>
        <mxCell id="buvXnp-66d20s14vqZSp-33" value="" style="rounded=1;whiteSpace=wrap;html=1;" parent="1" vertex="1">
          <mxGeometry x="1010" y="369.25" width="120" height="60" as="geometry" />
        </mxCell>
        <mxCell id="buvXnp-66d20s14vqZSp-34" value="" style="rounded=1;whiteSpace=wrap;html=1;" parent="1" vertex="1">
          <mxGeometry x="1020" y="379.25" width="120" height="60" as="geometry" />
        </mxCell>
        <mxCell id="buvXnp-66d20s14vqZSp-35" value="" style="rounded=1;whiteSpace=wrap;html=1;" parent="1" vertex="1">
          <mxGeometry x="1030" y="389.25" width="120" height="60" as="geometry" />
        </mxCell>
        <mxCell id="buvXnp-66d20s14vqZSp-36" value="" style="rounded=1;whiteSpace=wrap;html=1;" parent="1" vertex="1">
          <mxGeometry x="1010" y="462.25" width="120" height="60" as="geometry" />
        </mxCell>
        <mxCell id="buvXnp-66d20s14vqZSp-37" value="" style="rounded=1;whiteSpace=wrap;html=1;" parent="1" vertex="1">
          <mxGeometry x="1020" y="472.25" width="120" height="60" as="geometry" />
        </mxCell>
        <mxCell id="buvXnp-66d20s14vqZSp-38" value="" style="rounded=1;whiteSpace=wrap;html=1;" parent="1" vertex="1">
          <mxGeometry x="1030" y="482.25" width="120" height="60" as="geometry" />
        </mxCell>
        <mxCell id="buvXnp-66d20s14vqZSp-39" value="" style="rounded=1;whiteSpace=wrap;html=1;" parent="1" vertex="1">
          <mxGeometry x="1010" y="569.25" width="120" height="60" as="geometry" />
        </mxCell>
        <mxCell id="buvXnp-66d20s14vqZSp-40" value="" style="rounded=1;whiteSpace=wrap;html=1;" parent="1" vertex="1">
          <mxGeometry x="1020" y="579.25" width="120" height="60" as="geometry" />
        </mxCell>
        <mxCell id="buvXnp-66d20s14vqZSp-41" value="" style="rounded=1;whiteSpace=wrap;html=1;" parent="1" vertex="1">
          <mxGeometry x="1030" y="589.25" width="120" height="60" as="geometry" />
        </mxCell>
        <mxCell id="buvXnp-66d20s14vqZSp-42" value="" style="rounded=1;whiteSpace=wrap;html=1;" parent="1" vertex="1">
          <mxGeometry x="1010" y="669.25" width="120" height="60" as="geometry" />
        </mxCell>
        <mxCell id="buvXnp-66d20s14vqZSp-43" value="" style="rounded=1;whiteSpace=wrap;html=1;" parent="1" vertex="1">
          <mxGeometry x="1020" y="679.25" width="120" height="60" as="geometry" />
        </mxCell>
        <mxCell id="buvXnp-66d20s14vqZSp-44" value="" style="rounded=1;whiteSpace=wrap;html=1;" parent="1" vertex="1">
          <mxGeometry x="1030" y="689.25" width="120" height="60" as="geometry" />
        </mxCell>
        <mxCell id="buvXnp-66d20s14vqZSp-45" value="" style="shape=cylinder3;whiteSpace=wrap;html=1;boundedLbl=1;backgroundOutline=1;size=15;" parent="1" vertex="1">
          <mxGeometry x="648" y="850" width="60" height="80" as="geometry" />
        </mxCell>
        <mxCell id="TIKX9eycbTkuqXLnJjCn-7" value="" style="rounded=1;whiteSpace=wrap;html=1;fillColor=#fff2cc;strokeColor=#d6b656;" parent="1" vertex="1">
          <mxGeometry x="1290" y="653.13" width="206" height="121.75" as="geometry" />
        </mxCell>
        <mxCell id="TIKX9eycbTkuqXLnJjCn-8" value="" style="shape=cylinder3;whiteSpace=wrap;html=1;boundedLbl=1;backgroundOutline=1;size=15;rotation=90;" parent="1" vertex="1">
          <mxGeometry x="1363" y="634.01" width="60" height="160" as="geometry" />
        </mxCell>
        <mxCell id="TIKX9eycbTkuqXLnJjCn-11" value="" style="shape=flexArrow;endArrow=classic;html=1;rounded=0;fillColor=#006600;" parent="1" edge="1">
          <mxGeometry width="50" height="50" relative="1" as="geometry">
            <mxPoint x="170" y="659" as="sourcePoint" />
            <mxPoint x="220" y="659" as="targetPoint" />
          </mxGeometry>
        </mxCell>
        <mxCell id="TIKX9eycbTkuqXLnJjCn-12" value="" style="shape=flexArrow;endArrow=classic;html=1;rounded=0;fillColor=#006600;" parent="1" edge="1">
          <mxGeometry width="50" height="50" relative="1" as="geometry">
            <mxPoint x="480" y="438.25" as="sourcePoint" />
            <mxPoint x="530" y="438.25" as="targetPoint" />
          </mxGeometry>
        </mxCell>
        <mxCell id="TIKX9eycbTkuqXLnJjCn-13" value="" style="shape=flexArrow;endArrow=classic;html=1;rounded=0;fillColor=#006600;" parent="1" edge="1">
          <mxGeometry width="50" height="50" relative="1" as="geometry">
            <mxPoint x="480" y="553" as="sourcePoint" />
            <mxPoint x="530" y="553" as="targetPoint" />
          </mxGeometry>
        </mxCell>
        <mxCell id="TIKX9eycbTkuqXLnJjCn-14" value="" style="shape=flexArrow;endArrow=classic;html=1;rounded=0;fillColor=#006600;" parent="1" edge="1">
          <mxGeometry width="50" height="50" relative="1" as="geometry">
            <mxPoint x="480" y="669.25" as="sourcePoint" />
            <mxPoint x="530" y="669.25" as="targetPoint" />
          </mxGeometry>
        </mxCell>
        <mxCell id="TIKX9eycbTkuqXLnJjCn-15" value="" style="shape=flexArrow;endArrow=classic;html=1;rounded=0;fillColor=#006600;" parent="1" edge="1">
          <mxGeometry width="50" height="50" relative="1" as="geometry">
            <mxPoint x="803" y="439.25" as="sourcePoint" />
            <mxPoint x="853" y="439.25" as="targetPoint" />
          </mxGeometry>
        </mxCell>
        <mxCell id="TIKX9eycbTkuqXLnJjCn-16" value="" style="shape=flexArrow;endArrow=classic;html=1;rounded=0;fillColor=#006600;" parent="1" edge="1">
          <mxGeometry width="50" height="50" relative="1" as="geometry">
            <mxPoint x="803" y="554" as="sourcePoint" />
            <mxPoint x="853" y="554" as="targetPoint" />
          </mxGeometry>
        </mxCell>
        <mxCell id="TIKX9eycbTkuqXLnJjCn-17" value="" style="shape=flexArrow;endArrow=classic;html=1;rounded=0;fillColor=#006600;" parent="1" edge="1">
          <mxGeometry width="50" height="50" relative="1" as="geometry">
            <mxPoint x="803" y="670.25" as="sourcePoint" />
            <mxPoint x="853" y="670.25" as="targetPoint" />
          </mxGeometry>
        </mxCell>
        <mxCell id="TIKX9eycbTkuqXLnJjCn-18" value="" style="shape=flexArrow;endArrow=classic;html=1;rounded=0;fillColor=#006600;" parent="1" edge="1">
          <mxGeometry width="50" height="50" relative="1" as="geometry">
            <mxPoint x="1210" y="419.13" as="sourcePoint" />
            <mxPoint x="1260" y="419.13" as="targetPoint" />
          </mxGeometry>
        </mxCell>
        <mxCell id="TIKX9eycbTkuqXLnJjCn-19" value="" style="shape=flexArrow;endArrow=classic;html=1;rounded=0;fillColor=#006600;" parent="1" edge="1">
          <mxGeometry width="50" height="50" relative="1" as="geometry">
            <mxPoint x="1210" y="533.88" as="sourcePoint" />
            <mxPoint x="1260" y="533.88" as="targetPoint" />
          </mxGeometry>
        </mxCell>
        <mxCell id="TIKX9eycbTkuqXLnJjCn-20" value="" style="shape=flexArrow;endArrow=classic;html=1;rounded=0;fillColor=#006600;" parent="1" edge="1">
          <mxGeometry width="50" height="50" relative="1" as="geometry">
            <mxPoint x="1210" y="713.51" as="sourcePoint" />
            <mxPoint x="1260" y="713.51" as="targetPoint" />
          </mxGeometry>
        </mxCell>
        <mxCell id="TIKX9eycbTkuqXLnJjCn-34" value="" style="shape=flexArrow;endArrow=classic;html=1;rounded=0;fillColor=#006633;" parent="1" edge="1">
          <mxGeometry width="50" height="50" relative="1" as="geometry">
            <mxPoint x="660" y="287" as="sourcePoint" />
            <mxPoint x="660" y="237" as="targetPoint" />
          </mxGeometry>
        </mxCell>
        <mxCell id="TIKX9eycbTkuqXLnJjCn-35" value="" style="shape=flexArrow;endArrow=classic;html=1;rounded=0;fillColor=#006633;" parent="1" edge="1">
          <mxGeometry width="50" height="50" relative="1" as="geometry">
            <mxPoint x="697.5" y="287" as="sourcePoint" />
            <mxPoint x="697.5" y="237" as="targetPoint" />
          </mxGeometry>
        </mxCell>
        <mxCell id="TIKX9eycbTkuqXLnJjCn-36" value="" style="shape=flexArrow;endArrow=classic;html=1;rounded=0;fillColor=#006633;" parent="1" edge="1">
          <mxGeometry width="50" height="50" relative="1" as="geometry">
            <mxPoint x="737" y="287" as="sourcePoint" />
            <mxPoint x="737" y="237" as="targetPoint" />
          </mxGeometry>
        </mxCell>
        <mxCell id="TIKX9eycbTkuqXLnJjCn-37" value="" style="shape=flexArrow;endArrow=classic;html=1;rounded=0;fillColor=#006633;" parent="1" edge="1">
          <mxGeometry width="50" height="50" relative="1" as="geometry">
            <mxPoint x="618" y="287" as="sourcePoint" />
            <mxPoint x="618" y="237" as="targetPoint" />
          </mxGeometry>
        </mxCell>
        <mxCell id="TIKX9eycbTkuqXLnJjCn-38" value="" style="shape=flexArrow;endArrow=classic;html=1;rounded=0;fillColor=#006600;" parent="1" edge="1">
          <mxGeometry width="50" height="50" relative="1" as="geometry">
            <mxPoint x="39.5" y="505" as="sourcePoint" />
            <mxPoint x="39.5" y="555" as="targetPoint" />
          </mxGeometry>
        </mxCell>
        <mxCell id="TIKX9eycbTkuqXLnJjCn-40" style="edgeStyle=orthogonalEdgeStyle;rounded=0;orthogonalLoop=1;jettySize=auto;html=1;entryX=0;entryY=0;entryDx=0;entryDy=52.5;entryPerimeter=0;strokeWidth=3;strokeColor=#006633;" parent="1" source="TIKX9eycbTkuqXLnJjCn-10" target="buvXnp-66d20s14vqZSp-45" edge="1">
          <mxGeometry relative="1" as="geometry">
            <Array as="points">
              <mxPoint x="40" y="903" />
              <mxPoint x="402" y="903" />
            </Array>
          </mxGeometry>
        </mxCell>
        <mxCell id="TIKX9eycbTkuqXLnJjCn-45" value="DACO/SFDC Integration" style="text;html=1;align=center;verticalAlign=middle;resizable=0;points=[];autosize=1;strokeColor=none;fillColor=none;fontSize=14;fontColor=#000099;labelBackgroundColor=#E6E6E6;" parent="1" vertex="1">
          <mxGeometry x="1303" y="310" width="180" height="30" as="geometry" />
        </mxCell>
        <mxCell id="TIKX9eycbTkuqXLnJjCn-46" value="??? Integration" style="text;html=1;align=center;verticalAlign=middle;resizable=0;points=[];autosize=1;strokeColor=none;fillColor=none;fontSize=14;fontColor=#000099;labelBackgroundColor=#E6E6E6;" parent="1" vertex="1">
          <mxGeometry x="1333" y="639.25" width="120" height="30" as="geometry" />
        </mxCell>
        <mxCell id="TIKX9eycbTkuqXLnJjCn-47" value="Target Database (Caudron)" style="text;html=1;align=center;verticalAlign=middle;resizable=0;points=[];autosize=1;strokeColor=none;fillColor=none;fontSize=14;fontColor=#000099;labelBackgroundColor=#E6E6E6;" parent="1" vertex="1">
          <mxGeometry x="940" y="310" width="190" height="30" as="geometry" />
        </mxCell>
        <mxCell id="TIKX9eycbTkuqXLnJjCn-48" value="Consumer Groups" style="text;html=1;align=center;verticalAlign=middle;resizable=0;points=[];autosize=1;strokeColor=none;fillColor=none;fontSize=14;fontColor=#000099;labelBackgroundColor=#E6E6E6;" parent="1" vertex="1">
          <mxGeometry x="618" y="310" width="140" height="30" as="geometry" />
        </mxCell>
        <mxCell id="TIKX9eycbTkuqXLnJjCn-49" value="Caudron Internal Topics" style="text;html=1;align=center;verticalAlign=middle;resizable=0;points=[];autosize=1;strokeColor=none;fillColor=none;fontSize=14;fontColor=#000099;labelBackgroundColor=#E6E6E6;" parent="1" vertex="1">
          <mxGeometry x="270" y="310" width="170" height="30" as="geometry" />
        </mxCell>
        <mxCell id="TIKX9eycbTkuqXLnJjCn-50" value="Billing Binlog Listener" style="text;html=1;align=center;verticalAlign=middle;resizable=0;points=[];autosize=1;strokeColor=none;fillColor=none;fontSize=14;fontColor=#000099;labelBackgroundColor=#E6E6E6;" parent="1" vertex="1">
          <mxGeometry x="-20" y="310" width="160" height="30" as="geometry" />
        </mxCell>
        <mxCell id="TIKX9eycbTkuqXLnJjCn-51" value="Producer Group" style="text;html=1;align=center;verticalAlign=middle;resizable=0;points=[];autosize=1;strokeColor=none;fillColor=none;fontSize=14;fontColor=#000099;labelBackgroundColor=#E6E6E6;" parent="1" vertex="1">
          <mxGeometry x="-10" y="545" width="120" height="30" as="geometry" />
        </mxCell>
        <mxCell id="TIKX9eycbTkuqXLnJjCn-52" value="Source database (Billing Shards)" style="text;html=1;align=center;verticalAlign=middle;resizable=0;points=[];autosize=1;strokeColor=none;fillColor=none;fontSize=14;fontColor=#000099;labelBackgroundColor=#E6E6E6;" parent="1" vertex="1">
          <mxGeometry x="573" y="80" width="230" height="30" as="geometry" />
        </mxCell>
        <mxCell id="TIKX9eycbTkuqXLnJjCn-53" value="Binlog Listener" style="text;html=1;align=center;verticalAlign=middle;resizable=0;points=[];autosize=1;strokeColor=none;fillColor=none;fontSize=12;fontColor=#000099;labelBackgroundColor=#E6E6E6;" parent="1" vertex="1">
          <mxGeometry x="1040" y="704.25" width="100" height="30" as="geometry" />
        </mxCell>
        <mxCell id="TIKX9eycbTkuqXLnJjCn-54" value="Binlog Listener" style="text;html=1;align=center;verticalAlign=middle;resizable=0;points=[];autosize=1;strokeColor=none;fillColor=none;fontSize=12;fontColor=#000099;labelBackgroundColor=#E6E6E6;" parent="1" vertex="1">
          <mxGeometry x="1040" y="604" width="100" height="30" as="geometry" />
        </mxCell>
        <mxCell id="TIKX9eycbTkuqXLnJjCn-55" value="Binlog Listener" style="text;html=1;align=center;verticalAlign=middle;resizable=0;points=[];autosize=1;strokeColor=none;fillColor=none;fontSize=12;fontColor=#000099;labelBackgroundColor=#E6E6E6;" parent="1" vertex="1">
          <mxGeometry x="1040" y="496" width="100" height="30" as="geometry" />
        </mxCell>
        <mxCell id="TIKX9eycbTkuqXLnJjCn-56" value="Binlog Listener" style="text;html=1;align=center;verticalAlign=middle;resizable=0;points=[];autosize=1;strokeColor=none;fillColor=none;fontSize=12;fontColor=#000099;labelBackgroundColor=#E6E6E6;" parent="1" vertex="1">
          <mxGeometry x="1040" y="405" width="100" height="30" as="geometry" />
        </mxCell>
        <mxCell id="TIKX9eycbTkuqXLnJjCn-58" value="Scheduled Topics" style="text;html=1;align=center;verticalAlign=middle;resizable=0;points=[];autosize=1;strokeColor=none;fillColor=none;fontSize=12;fontColor=#000099;labelBackgroundColor=#E6E6E6;" parent="1" vertex="1">
          <mxGeometry x="275" y="405" width="120" height="30" as="geometry" />
        </mxCell>
        <mxCell id="TIKX9eycbTkuqXLnJjCn-59" value="On-demand Topics" style="text;html=1;align=center;verticalAlign=middle;resizable=0;points=[];autosize=1;strokeColor=none;fillColor=none;fontSize=12;fontColor=#000099;labelBackgroundColor=#E6E6E6;" parent="1" vertex="1">
          <mxGeometry x="280" y="495" width="120" height="30" as="geometry" />
        </mxCell>
        <mxCell id="TIKX9eycbTkuqXLnJjCn-60" value="Manual/Resync Topics" style="text;html=1;align=center;verticalAlign=middle;resizable=0;points=[];autosize=1;strokeColor=none;fillColor=none;fontSize=12;fontColor=#000099;labelBackgroundColor=#E6E6E6;" parent="1" vertex="1">
          <mxGeometry x="275" y="585" width="140" height="30" as="geometry" />
        </mxCell>
        <mxCell id="TIKX9eycbTkuqXLnJjCn-61" value="Future Topics" style="text;html=1;align=center;verticalAlign=middle;resizable=0;points=[];autosize=1;strokeColor=none;fillColor=none;fontSize=12;fontColor=#000099;labelBackgroundColor=#E6E6E6;" parent="1" vertex="1">
          <mxGeometry x="290" y="669.25" width="100" height="30" as="geometry" />
        </mxCell>
        <mxCell id="TIKX9eycbTkuqXLnJjCn-62" value="Scheduled Consumers" style="text;html=1;align=center;verticalAlign=middle;resizable=0;points=[];autosize=1;strokeColor=none;fillColor=none;fontSize=12;fontColor=#000099;labelBackgroundColor=#E6E6E6;" parent="1" vertex="1">
          <mxGeometry x="618" y="415" width="140" height="30" as="geometry" />
        </mxCell>
        <mxCell id="TIKX9eycbTkuqXLnJjCn-63" value="On-demand Consumers" style="text;html=1;align=center;verticalAlign=middle;resizable=0;points=[];autosize=1;strokeColor=none;fillColor=none;fontSize=12;fontColor=#000099;labelBackgroundColor=#E6E6E6;" parent="1" vertex="1">
          <mxGeometry x="623" y="549.25" width="150" height="30" as="geometry" />
        </mxCell>
        <mxCell id="TIKX9eycbTkuqXLnJjCn-64" value="Manual/Resync Consumers" style="text;html=1;align=center;verticalAlign=middle;resizable=0;points=[];autosize=1;strokeColor=none;fillColor=none;fontSize=12;fontColor=#000099;labelBackgroundColor=#E6E6E6;" parent="1" vertex="1">
          <mxGeometry x="613" y="674.25" width="170" height="30" as="geometry" />
        </mxCell>
        <mxCell id="TIKX9eycbTkuqXLnJjCn-65" value="Caudron Events" style="text;html=1;align=center;verticalAlign=middle;resizable=0;points=[];autosize=1;strokeColor=none;fillColor=none;fontSize=12;fontColor=#000099;labelBackgroundColor=#E6E6E6;" parent="1" vertex="1">
          <mxGeometry x="1333" y="394.25" width="110" height="30" as="geometry" />
        </mxCell>
        <mxCell id="TIKX9eycbTkuqXLnJjCn-66" value="Resync Events" style="text;html=1;align=center;verticalAlign=middle;resizable=0;points=[];autosize=1;strokeColor=none;fillColor=none;fontSize=12;fontColor=#000099;labelBackgroundColor=#E6E6E6;" parent="1" vertex="1">
          <mxGeometry x="1338" y="462.25" width="100" height="30" as="geometry" />
        </mxCell>
        <mxCell id="TIKX9eycbTkuqXLnJjCn-67" value="Future Topics" style="text;html=1;align=center;verticalAlign=middle;resizable=0;points=[];autosize=1;strokeColor=none;fillColor=none;fontSize=12;fontColor=#000099;labelBackgroundColor=#E6E6E6;" parent="1" vertex="1">
          <mxGeometry x="1338" y="545" width="100" height="30" as="geometry" />
        </mxCell>
        <mxCell id="TIKX9eycbTkuqXLnJjCn-68" value="??? Topics" style="text;html=1;align=center;verticalAlign=middle;resizable=0;points=[];autosize=1;strokeColor=none;fillColor=none;fontSize=12;fontColor=#000099;labelBackgroundColor=#E6E6E6;" parent="1" vertex="1">
          <mxGeometry x="1348" y="694.25" width="80" height="30" as="geometry" />
        </mxCell>
        <mxCell id="TIKX9eycbTkuqXLnJjCn-69" value="Listeners" style="text;html=1;align=center;verticalAlign=middle;resizable=0;points=[];autosize=1;strokeColor=none;fillColor=none;fontSize=12;fontColor=#000099;labelBackgroundColor=#E6E6E6;" parent="1" vertex="1">
          <mxGeometry x="5" y="415" width="70" height="30" as="geometry" />
        </mxCell>
        <mxCell id="TIKX9eycbTkuqXLnJjCn-70" value="Producers" style="text;html=1;align=center;verticalAlign=middle;resizable=0;points=[];autosize=1;strokeColor=none;fillColor=none;fontSize=12;fontColor=#000099;labelBackgroundColor=#E6E6E6;" parent="1" vertex="1">
          <mxGeometry y="675" width="80" height="30" as="geometry" />
        </mxCell>
        <mxCell id="TIKX9eycbTkuqXLnJjCn-71" value="shard 2" style="text;html=1;align=center;verticalAlign=middle;resizable=0;points=[];autosize=1;strokeColor=none;fillColor=none;fontSize=12;fontColor=#000099;labelBackgroundColor=#E6E6E6;" parent="1" vertex="1">
          <mxGeometry x="568" y="160" width="60" height="30" as="geometry" />
        </mxCell>
        <mxCell id="TIKX9eycbTkuqXLnJjCn-72" value="shard 1" style="text;html=1;align=center;verticalAlign=middle;resizable=0;points=[];autosize=1;strokeColor=none;fillColor=none;fontSize=12;fontColor=#000099;labelBackgroundColor=#E6E6E6;" parent="1" vertex="1">
          <mxGeometry x="478" y="160" width="60" height="30" as="geometry" />
        </mxCell>
        <mxCell id="TIKX9eycbTkuqXLnJjCn-73" value="shard 3" style="text;html=1;align=center;verticalAlign=middle;resizable=0;points=[];autosize=1;strokeColor=none;fillColor=none;fontSize=12;fontColor=#000099;labelBackgroundColor=#E6E6E6;" parent="1" vertex="1">
          <mxGeometry x="658" y="160" width="60" height="30" as="geometry" />
        </mxCell>
        <mxCell id="TIKX9eycbTkuqXLnJjCn-74" value="shard ..." style="text;html=1;align=center;verticalAlign=middle;resizable=0;points=[];autosize=1;strokeColor=none;fillColor=none;fontSize=12;fontColor=#000099;labelBackgroundColor=#E6E6E6;" parent="1" vertex="1">
          <mxGeometry x="743" y="160" width="70" height="30" as="geometry" />
        </mxCell>
        <mxCell id="TIKX9eycbTkuqXLnJjCn-75" value="shard ?" style="text;html=1;align=center;verticalAlign=middle;resizable=0;points=[];autosize=1;strokeColor=none;fillColor=none;fontSize=12;fontColor=#000099;labelBackgroundColor=#E6E6E6;" parent="1" vertex="1">
          <mxGeometry x="838" y="160" width="60" height="30" as="geometry" />
        </mxCell>
        <mxCell id="TIKX9eycbTkuqXLnJjCn-76" value="shard 1" style="text;html=1;align=center;verticalAlign=middle;resizable=0;points=[];autosize=1;strokeColor=none;fillColor=none;fontSize=12;fontColor=#000099;labelBackgroundColor=#E6E6E6;" parent="1" vertex="1">
          <mxGeometry x="910" y="399.25" width="60" height="30" as="geometry" />
        </mxCell>
        <mxCell id="TIKX9eycbTkuqXLnJjCn-77" value="shard 2" style="text;html=1;align=center;verticalAlign=middle;resizable=0;points=[];autosize=1;strokeColor=none;fillColor=none;fontSize=12;fontColor=#000099;labelBackgroundColor=#E6E6E6;" parent="1" vertex="1">
          <mxGeometry x="910" y="500" width="60" height="30" as="geometry" />
        </mxCell>
        <mxCell id="TIKX9eycbTkuqXLnJjCn-78" value="shard ..." style="text;html=1;align=center;verticalAlign=middle;resizable=0;points=[];autosize=1;strokeColor=none;fillColor=none;fontSize=12;fontColor=#000099;labelBackgroundColor=#E6E6E6;" parent="1" vertex="1">
          <mxGeometry x="905" y="599.25" width="70" height="30" as="geometry" />
        </mxCell>
        <mxCell id="TIKX9eycbTkuqXLnJjCn-79" value="shard ?" style="text;html=1;align=center;verticalAlign=middle;resizable=0;points=[];autosize=1;strokeColor=none;fillColor=none;fontSize=12;fontColor=#000099;labelBackgroundColor=#E6E6E6;" parent="1" vertex="1">
          <mxGeometry x="910" y="699.01" width="60" height="30" as="geometry" />
        </mxCell>
        <mxCell id="TIKX9eycbTkuqXLnJjCn-80" value="ZDP Quartz" style="text;html=1;align=center;verticalAlign=middle;resizable=0;points=[];autosize=1;strokeColor=none;fillColor=none;fontSize=14;fontColor=#000099;labelBackgroundColor=#E6E6E6;" parent="1" vertex="1">
          <mxGeometry x="628" y="940" width="100" height="30" as="geometry" />
        </mxCell>
        <mxCell id="TIKX9eycbTkuqXLnJjCn-81" value="" style="rounded=1;whiteSpace=wrap;html=1;" parent="1" vertex="1">
          <mxGeometry x="2110" y="541.5" width="206" height="291.75" as="geometry" />
        </mxCell>
        <mxCell id="TIKX9eycbTkuqXLnJjCn-82" value="" style="shape=cylinder3;whiteSpace=wrap;html=1;boundedLbl=1;backgroundOutline=1;size=15;rotation=90;" parent="1" vertex="1">
          <mxGeometry x="2178" y="541.5" width="60" height="160" as="geometry" />
        </mxCell>
        <mxCell id="TIKX9eycbTkuqXLnJjCn-83" value="" style="shape=cylinder3;whiteSpace=wrap;html=1;boundedLbl=1;backgroundOutline=1;size=15;rotation=90;" parent="1" vertex="1">
          <mxGeometry x="2178" y="614.5" width="60" height="160" as="geometry" />
        </mxCell>
        <mxCell id="TIKX9eycbTkuqXLnJjCn-84" value="" style="shape=cylinder3;whiteSpace=wrap;html=1;boundedLbl=1;backgroundOutline=1;size=15;rotation=90;fillColor=#fff2cc;strokeColor=#d6b656;" parent="1" vertex="1">
          <mxGeometry x="2178" y="691.5" width="60" height="160" as="geometry" />
        </mxCell>
        <mxCell id="TIKX9eycbTkuqXLnJjCn-85" value="Mapper Group Topics" style="text;html=1;align=center;verticalAlign=middle;resizable=0;points=[];autosize=1;strokeColor=none;fillColor=none;fontSize=14;fontColor=#000099;labelBackgroundColor=#E6E6E6;" parent="1" vertex="1">
          <mxGeometry x="2133" y="527.5" width="160" height="30" as="geometry" />
        </mxCell>
        <mxCell id="TIKX9eycbTkuqXLnJjCn-86" value="Topic Group 1" style="text;html=1;align=center;verticalAlign=middle;resizable=0;points=[];autosize=1;strokeColor=none;fillColor=none;fontSize=12;fontColor=#000099;labelBackgroundColor=#E6E6E6;" parent="1" vertex="1">
          <mxGeometry x="2158" y="611.75" width="100" height="30" as="geometry" />
        </mxCell>
        <mxCell id="TIKX9eycbTkuqXLnJjCn-87" value="Topic Group ..." style="text;html=1;align=center;verticalAlign=middle;resizable=0;points=[];autosize=1;strokeColor=none;fillColor=none;fontSize=12;fontColor=#000099;labelBackgroundColor=#E6E6E6;" parent="1" vertex="1">
          <mxGeometry x="2158" y="679.75" width="100" height="30" as="geometry" />
        </mxCell>
        <mxCell id="TIKX9eycbTkuqXLnJjCn-88" value="Topic Group ?" style="text;html=1;align=center;verticalAlign=middle;resizable=0;points=[];autosize=1;strokeColor=none;fillColor=none;fontSize=12;fontColor=#000099;labelBackgroundColor=#E6E6E6;" parent="1" vertex="1">
          <mxGeometry x="2158" y="762.5" width="100" height="30" as="geometry" />
        </mxCell>
        <mxCell id="TIKX9eycbTkuqXLnJjCn-89" value="" style="rounded=1;whiteSpace=wrap;html=1;" parent="1" vertex="1">
          <mxGeometry x="1800" y="602.5" width="230" height="172" as="geometry" />
        </mxCell>
        <mxCell id="TIKX9eycbTkuqXLnJjCn-90" value="" style="rounded=1;whiteSpace=wrap;html=1;" parent="1" vertex="1">
          <mxGeometry x="1835" y="658.5" width="120" height="60" as="geometry" />
        </mxCell>
        <mxCell id="TIKX9eycbTkuqXLnJjCn-91" value="" style="rounded=1;whiteSpace=wrap;html=1;" parent="1" vertex="1">
          <mxGeometry x="1845" y="668.5" width="120" height="60" as="geometry" />
        </mxCell>
        <mxCell id="TIKX9eycbTkuqXLnJjCn-92" value="" style="rounded=1;whiteSpace=wrap;html=1;" parent="1" vertex="1">
          <mxGeometry x="1855" y="678.5" width="120" height="60" as="geometry" />
        </mxCell>
        <mxCell id="TIKX9eycbTkuqXLnJjCn-93" value="Caudron Events Listeners" style="text;html=1;align=center;verticalAlign=middle;resizable=0;points=[];autosize=1;strokeColor=none;fillColor=none;fontSize=14;fontColor=#000099;labelBackgroundColor=#E6E6E6;" parent="1" vertex="1">
          <mxGeometry x="1845" y="588.5" width="180" height="30" as="geometry" />
        </mxCell>
        <mxCell id="TIKX9eycbTkuqXLnJjCn-94" value="Listeners" style="text;html=1;align=center;verticalAlign=middle;resizable=0;points=[];autosize=1;strokeColor=none;fillColor=none;fontSize=12;fontColor=#000099;labelBackgroundColor=#E6E6E6;" parent="1" vertex="1">
          <mxGeometry x="1880" y="693.5" width="70" height="30" as="geometry" />
        </mxCell>
        <mxCell id="TIKX9eycbTkuqXLnJjCn-95" value="" style="rounded=1;whiteSpace=wrap;html=1;" parent="1" vertex="1">
          <mxGeometry x="2390" y="610.5" width="230" height="172" as="geometry" />
        </mxCell>
        <mxCell id="TIKX9eycbTkuqXLnJjCn-96" value="" style="rounded=1;whiteSpace=wrap;html=1;" parent="1" vertex="1">
          <mxGeometry x="2425" y="666.5" width="120" height="60" as="geometry" />
        </mxCell>
        <mxCell id="TIKX9eycbTkuqXLnJjCn-97" value="" style="rounded=1;whiteSpace=wrap;html=1;" parent="1" vertex="1">
          <mxGeometry x="2435" y="676.5" width="120" height="60" as="geometry" />
        </mxCell>
        <mxCell id="TIKX9eycbTkuqXLnJjCn-98" value="" style="rounded=1;whiteSpace=wrap;html=1;" parent="1" vertex="1">
          <mxGeometry x="2445" y="686.5" width="120" height="60" as="geometry" />
        </mxCell>
        <mxCell id="TIKX9eycbTkuqXLnJjCn-99" value="Mapper Consumer Groups" style="text;html=1;align=center;verticalAlign=middle;resizable=0;points=[];autosize=1;strokeColor=none;fillColor=none;fontSize=14;fontColor=#000099;labelBackgroundColor=#E6E6E6;" parent="1" vertex="1">
          <mxGeometry x="2430" y="596.5" width="190" height="30" as="geometry" />
        </mxCell>
        <mxCell id="TIKX9eycbTkuqXLnJjCn-100" value="Mapper Consumers" style="text;html=1;align=center;verticalAlign=middle;resizable=0;points=[];autosize=1;strokeColor=none;fillColor=none;fontSize=12;fontColor=#000099;labelBackgroundColor=#E6E6E6;" parent="1" vertex="1">
          <mxGeometry x="2440" y="701.5" width="130" height="30" as="geometry" />
        </mxCell>
        <mxCell id="TIKX9eycbTkuqXLnJjCn-109" value="" style="rounded=1;whiteSpace=wrap;html=1;" parent="1" vertex="1">
          <mxGeometry x="3013" y="480.75" width="230" height="443.5" as="geometry" />
        </mxCell>
        <mxCell id="TIKX9eycbTkuqXLnJjCn-110" value="" style="rounded=1;whiteSpace=wrap;html=1;fillColor=#f8cecc;strokeColor=#b85450;" parent="1" vertex="1">
          <mxGeometry x="2690" y="480.75" width="230" height="443.5" as="geometry" />
        </mxCell>
        <mxCell id="TIKX9eycbTkuqXLnJjCn-111" value="" style="shape=cylinder3;whiteSpace=wrap;html=1;boundedLbl=1;backgroundOutline=1;size=15;rotation=90;" parent="1" vertex="1">
          <mxGeometry x="2770" y="492.75" width="60" height="160" as="geometry" />
        </mxCell>
        <mxCell id="TIKX9eycbTkuqXLnJjCn-112" value="" style="shape=cylinder3;whiteSpace=wrap;html=1;boundedLbl=1;backgroundOutline=1;size=15;rotation=90;" parent="1" vertex="1">
          <mxGeometry x="2770" y="582.75" width="60" height="160" as="geometry" />
        </mxCell>
        <mxCell id="TIKX9eycbTkuqXLnJjCn-113" value="" style="shape=cylinder3;whiteSpace=wrap;html=1;boundedLbl=1;backgroundOutline=1;size=15;rotation=90;" parent="1" vertex="1">
          <mxGeometry x="2770" y="672.75" width="60" height="160" as="geometry" />
        </mxCell>
        <mxCell id="TIKX9eycbTkuqXLnJjCn-114" value="" style="shape=cylinder3;whiteSpace=wrap;html=1;boundedLbl=1;backgroundOutline=1;size=15;rotation=90;" parent="1" vertex="1">
          <mxGeometry x="2770" y="752.75" width="60" height="160" as="geometry" />
        </mxCell>
        <mxCell id="TIKX9eycbTkuqXLnJjCn-115" value="" style="rounded=1;whiteSpace=wrap;html=1;" parent="1" vertex="1">
          <mxGeometry x="3063" y="515" width="120" height="60" as="geometry" />
        </mxCell>
        <mxCell id="TIKX9eycbTkuqXLnJjCn-116" value="" style="rounded=1;whiteSpace=wrap;html=1;" parent="1" vertex="1">
          <mxGeometry x="3073" y="525" width="120" height="60" as="geometry" />
        </mxCell>
        <mxCell id="TIKX9eycbTkuqXLnJjCn-117" value="" style="rounded=1;whiteSpace=wrap;html=1;" parent="1" vertex="1">
          <mxGeometry x="3083" y="535" width="120" height="60" as="geometry" />
        </mxCell>
        <mxCell id="TIKX9eycbTkuqXLnJjCn-118" value="" style="rounded=1;whiteSpace=wrap;html=1;" parent="1" vertex="1">
          <mxGeometry x="3070.5" y="614.5" width="120" height="60" as="geometry" />
        </mxCell>
        <mxCell id="TIKX9eycbTkuqXLnJjCn-119" value="" style="rounded=1;whiteSpace=wrap;html=1;" parent="1" vertex="1">
          <mxGeometry x="3080.5" y="624.5" width="120" height="60" as="geometry" />
        </mxCell>
        <mxCell id="TIKX9eycbTkuqXLnJjCn-120" value="" style="rounded=1;whiteSpace=wrap;html=1;" parent="1" vertex="1">
          <mxGeometry x="3090.5" y="634.5" width="120" height="60" as="geometry" />
        </mxCell>
        <mxCell id="TIKX9eycbTkuqXLnJjCn-121" value="" style="rounded=1;whiteSpace=wrap;html=1;" parent="1" vertex="1">
          <mxGeometry x="3073" y="819.25" width="120" height="60" as="geometry" />
        </mxCell>
        <mxCell id="TIKX9eycbTkuqXLnJjCn-122" value="" style="rounded=1;whiteSpace=wrap;html=1;" parent="1" vertex="1">
          <mxGeometry x="3083" y="829.25" width="120" height="60" as="geometry" />
        </mxCell>
        <mxCell id="TIKX9eycbTkuqXLnJjCn-123" value="" style="rounded=1;whiteSpace=wrap;html=1;" parent="1" vertex="1">
          <mxGeometry x="3093" y="839.25" width="120" height="60" as="geometry" />
        </mxCell>
        <mxCell id="TIKX9eycbTkuqXLnJjCn-124" value="" style="shape=flexArrow;endArrow=classic;html=1;rounded=0;fillColor=#006600;" parent="1" edge="1">
          <mxGeometry width="50" height="50" relative="1" as="geometry">
            <mxPoint x="2940" y="572.25" as="sourcePoint" />
            <mxPoint x="2990" y="572.25" as="targetPoint" />
          </mxGeometry>
        </mxCell>
        <mxCell id="TIKX9eycbTkuqXLnJjCn-125" value="" style="shape=flexArrow;endArrow=classic;html=1;rounded=0;fillColor=#006600;" parent="1" edge="1">
          <mxGeometry width="50" height="50" relative="1" as="geometry">
            <mxPoint x="2940" y="665" as="sourcePoint" />
            <mxPoint x="2990" y="665" as="targetPoint" />
          </mxGeometry>
        </mxCell>
        <mxCell id="TIKX9eycbTkuqXLnJjCn-126" value="" style="shape=flexArrow;endArrow=classic;html=1;rounded=0;fillColor=#006600;" parent="1" edge="1">
          <mxGeometry width="50" height="50" relative="1" as="geometry">
            <mxPoint x="2940" y="752.75" as="sourcePoint" />
            <mxPoint x="2990" y="752.75" as="targetPoint" />
          </mxGeometry>
        </mxCell>
        <mxCell id="TIKX9eycbTkuqXLnJjCn-127" value="Consumer Groups" style="text;html=1;align=center;verticalAlign=middle;resizable=0;points=[];autosize=1;strokeColor=none;fillColor=none;fontSize=14;fontColor=#000099;labelBackgroundColor=#E6E6E6;" parent="1" vertex="1">
          <mxGeometry x="3068" y="462.75" width="140" height="30" as="geometry" />
        </mxCell>
        <mxCell id="TIKX9eycbTkuqXLnJjCn-128" value="Tenants Topics" style="text;html=1;align=center;verticalAlign=middle;resizable=0;points=[];autosize=1;strokeColor=none;fillColor=none;fontSize=14;fontColor=#000099;labelBackgroundColor=#E6E6E6;" parent="1" vertex="1">
          <mxGeometry x="2745" y="462.75" width="120" height="30" as="geometry" />
        </mxCell>
        <mxCell id="TIKX9eycbTkuqXLnJjCn-129" value="Tenant A Topics" style="text;html=1;align=center;verticalAlign=middle;resizable=0;points=[];autosize=1;strokeColor=none;fillColor=none;fontSize=12;fontColor=#000099;labelBackgroundColor=#E6E6E6;" parent="1" vertex="1">
          <mxGeometry x="2730" y="557.75" width="110" height="30" as="geometry" />
        </mxCell>
        <mxCell id="TIKX9eycbTkuqXLnJjCn-130" value="Tenant B Topics" style="text;html=1;align=center;verticalAlign=middle;resizable=0;points=[];autosize=1;strokeColor=none;fillColor=none;fontSize=12;fontColor=#000099;labelBackgroundColor=#E6E6E6;" parent="1" vertex="1">
          <mxGeometry x="2735" y="647.75" width="110" height="30" as="geometry" />
        </mxCell>
        <mxCell id="TIKX9eycbTkuqXLnJjCn-131" value="Tenant ... Topics" style="text;html=1;align=center;verticalAlign=middle;resizable=0;points=[];autosize=1;strokeColor=none;fillColor=none;fontSize=12;fontColor=#000099;labelBackgroundColor=#E6E6E6;" parent="1" vertex="1">
          <mxGeometry x="2740" y="737.75" width="110" height="30" as="geometry" />
        </mxCell>
        <mxCell id="TIKX9eycbTkuqXLnJjCn-132" value="Tenant ? Topics" style="text;html=1;align=center;verticalAlign=middle;resizable=0;points=[];autosize=1;strokeColor=none;fillColor=none;fontSize=12;fontColor=#000099;labelBackgroundColor=#E6E6E6;" parent="1" vertex="1">
          <mxGeometry x="2735" y="822" width="110" height="30" as="geometry" />
        </mxCell>
        <mxCell id="TIKX9eycbTkuqXLnJjCn-133" value="Tenant A Consumers" style="text;html=1;align=center;verticalAlign=middle;resizable=0;points=[];autosize=1;strokeColor=none;fillColor=none;fontSize=12;fontColor=#000099;labelBackgroundColor=#E6E6E6;" parent="1" vertex="1">
          <mxGeometry x="3078" y="550" width="130" height="30" as="geometry" />
        </mxCell>
        <mxCell id="TIKX9eycbTkuqXLnJjCn-134" value="Tenant B Consumers" style="text;html=1;align=center;verticalAlign=middle;resizable=0;points=[];autosize=1;strokeColor=none;fillColor=none;fontSize=12;fontColor=#000099;labelBackgroundColor=#E6E6E6;" parent="1" vertex="1">
          <mxGeometry x="3090.5" y="653.75" width="140" height="30" as="geometry" />
        </mxCell>
        <mxCell id="TIKX9eycbTkuqXLnJjCn-135" value="Tenant ? Consumers" style="text;html=1;align=center;verticalAlign=middle;resizable=0;points=[];autosize=1;strokeColor=none;fillColor=none;fontSize=12;fontColor=#000099;labelBackgroundColor=#E6E6E6;" parent="1" vertex="1">
          <mxGeometry x="3098" y="853.5" width="130" height="30" as="geometry" />
        </mxCell>
        <mxCell id="TIKX9eycbTkuqXLnJjCn-136" value="" style="shape=cylinder3;whiteSpace=wrap;html=1;boundedLbl=1;backgroundOutline=1;size=15;" parent="1" vertex="1">
          <mxGeometry x="2775" y="310" width="60" height="80" as="geometry" />
        </mxCell>
        <mxCell id="TIKX9eycbTkuqXLnJjCn-137" value="" style="shape=flexArrow;endArrow=classic;html=1;rounded=0;fillColor=#006600;" parent="1" edge="1">
          <mxGeometry width="50" height="50" relative="1" as="geometry">
            <mxPoint x="2940" y="834" as="sourcePoint" />
            <mxPoint x="2990" y="834" as="targetPoint" />
          </mxGeometry>
        </mxCell>
        <mxCell id="TIKX9eycbTkuqXLnJjCn-138" value="" style="rounded=1;whiteSpace=wrap;html=1;" parent="1" vertex="1">
          <mxGeometry x="3070.5" y="718.5" width="120" height="60" as="geometry" />
        </mxCell>
        <mxCell id="TIKX9eycbTkuqXLnJjCn-139" value="" style="rounded=1;whiteSpace=wrap;html=1;" parent="1" vertex="1">
          <mxGeometry x="3080.5" y="728.5" width="120" height="60" as="geometry" />
        </mxCell>
        <mxCell id="TIKX9eycbTkuqXLnJjCn-140" value="" style="rounded=1;whiteSpace=wrap;html=1;" parent="1" vertex="1">
          <mxGeometry x="3090.5" y="738.5" width="120" height="60" as="geometry" />
        </mxCell>
        <mxCell id="TIKX9eycbTkuqXLnJjCn-141" value="Tenant ... Consumers" style="text;html=1;align=center;verticalAlign=middle;resizable=0;points=[];autosize=1;strokeColor=none;fillColor=none;fontSize=12;fontColor=#000099;labelBackgroundColor=#E6E6E6;" parent="1" vertex="1">
          <mxGeometry x="3090.5" y="752.75" width="140" height="30" as="geometry" />
        </mxCell>
        <mxCell id="TIKX9eycbTkuqXLnJjCn-142" value="Tenants &amp;lt;-&amp;gt; Topics" style="text;html=1;align=center;verticalAlign=middle;resizable=0;points=[];autosize=1;strokeColor=none;fillColor=none;fontSize=14;fontColor=#000099;labelBackgroundColor=#E6E6E6;" parent="1" vertex="1">
          <mxGeometry x="2735" y="400" width="140" height="30" as="geometry" />
        </mxCell>
        <mxCell id="TIKX9eycbTkuqXLnJjCn-143" value="Cache" style="text;html=1;align=center;verticalAlign=middle;resizable=0;points=[];autosize=1;strokeColor=none;fillColor=none;fontSize=12;fontColor=#000099;labelBackgroundColor=#E6E6E6;" parent="1" vertex="1">
          <mxGeometry x="2775" y="352" width="60" height="30" as="geometry" />
        </mxCell>
        <mxCell id="TIKX9eycbTkuqXLnJjCn-146" value="" style="shape=flexArrow;endArrow=classic;html=1;rounded=0;fillColor=#006600;" parent="1" edge="1">
          <mxGeometry width="50" height="50" relative="1" as="geometry">
            <mxPoint x="2640" y="694.25" as="sourcePoint" />
            <mxPoint x="2690" y="694.25" as="targetPoint" />
          </mxGeometry>
        </mxCell>
        <mxCell id="TIKX9eycbTkuqXLnJjCn-147" value="" style="shape=flexArrow;endArrow=classic;html=1;rounded=0;fillColor=#006600;" parent="1" edge="1">
          <mxGeometry width="50" height="50" relative="1" as="geometry">
            <mxPoint x="2330" y="696" as="sourcePoint" />
            <mxPoint x="2380" y="696" as="targetPoint" />
          </mxGeometry>
        </mxCell>
        <mxCell id="TIKX9eycbTkuqXLnJjCn-148" value="" style="shape=flexArrow;endArrow=classic;html=1;rounded=0;fillColor=#006600;" parent="1" edge="1">
          <mxGeometry width="50" height="50" relative="1" as="geometry">
            <mxPoint x="2040" y="689" as="sourcePoint" />
            <mxPoint x="2090" y="689" as="targetPoint" />
          </mxGeometry>
        </mxCell>
        <mxCell id="TIKX9eycbTkuqXLnJjCn-149" value="DACO/Caudron Integration Data Pipeline" style="text;html=1;align=center;verticalAlign=middle;resizable=0;points=[];autosize=1;strokeColor=none;fillColor=none;fontSize=14;fontColor=#000099;labelBackgroundColor=#E6E6E6;" parent="1" vertex="1">
          <mxGeometry x="1830" y="270" width="280" height="30" as="geometry" />
        </mxCell>
        <mxCell id="TIKX9eycbTkuqXLnJjCn-155" value="1" style="ellipse;whiteSpace=wrap;html=1;aspect=fixed;strokeWidth=2;fontFamily=Tahoma;spacingBottom=4;spacingRight=2;strokeColor=#d3d3d3;" parent="1" vertex="1">
          <mxGeometry x="220" y="289" width="35" height="35" as="geometry" />
        </mxCell>
        <mxCell id="TIKX9eycbTkuqXLnJjCn-157" value="2" style="ellipse;whiteSpace=wrap;html=1;aspect=fixed;strokeWidth=2;fontFamily=Tahoma;spacingBottom=4;spacingRight=2;strokeColor=#d3d3d3;" parent="1" vertex="1">
          <mxGeometry x="1268" y="285" width="35" height="35" as="geometry" />
        </mxCell>
        <mxCell id="TIKX9eycbTkuqXLnJjCn-158" value="3" style="ellipse;whiteSpace=wrap;html=1;aspect=fixed;strokeWidth=2;fontFamily=Tahoma;spacingBottom=4;spacingRight=2;strokeColor=#d3d3d3;" parent="1" vertex="1">
          <mxGeometry x="1258" y="615" width="35" height="35" as="geometry" />
        </mxCell>
        <mxCell id="TIKX9eycbTkuqXLnJjCn-159" value="4" style="ellipse;whiteSpace=wrap;html=1;aspect=fixed;strokeWidth=2;fontFamily=Tahoma;spacingBottom=4;spacingRight=2;strokeColor=#d3d3d3;" parent="1" vertex="1">
          <mxGeometry x="2098" y="492.75" width="35" height="35" as="geometry" />
        </mxCell>
        <mxCell id="TIKX9eycbTkuqXLnJjCn-160" value="5" style="ellipse;whiteSpace=wrap;html=1;aspect=fixed;strokeWidth=2;fontFamily=Tahoma;spacingBottom=4;spacingRight=2;strokeColor=#d3d3d3;" parent="1" vertex="1">
          <mxGeometry x="2670" y="445.75" width="35" height="35" as="geometry" />
        </mxCell>
        <mxCell id="TIKX9eycbTkuqXLnJjCn-162" value="" style="ellipse;shape=cloud;whiteSpace=wrap;html=1;fillColor=#dae8fc;strokeColor=#6c8ebf;" parent="1" vertex="1">
          <mxGeometry x="3450" y="562.5" width="190" height="118" as="geometry" />
        </mxCell>
        <mxCell id="TIKX9eycbTkuqXLnJjCn-163" value="Salesforce.com" style="text;html=1;align=center;verticalAlign=middle;resizable=0;points=[];autosize=1;strokeColor=none;fillColor=none;fontSize=14;fontColor=#000099;labelBackgroundColor=#E6E6E6;" parent="1" vertex="1">
          <mxGeometry x="3495" y="608.25" width="120" height="30" as="geometry" />
        </mxCell>
        <mxCell id="TIKX9eycbTkuqXLnJjCn-164" value="" style="shape=flexArrow;endArrow=classic;html=1;rounded=0;fillColor=#006600;" parent="1" edge="1">
          <mxGeometry width="50" height="50" relative="1" as="geometry">
            <mxPoint x="3370" y="624.5" as="sourcePoint" />
            <mxPoint x="3420" y="624.5" as="targetPoint" />
          </mxGeometry>
        </mxCell>
        <mxCell id="TIKX9eycbTkuqXLnJjCn-165" style="edgeStyle=orthogonalEdgeStyle;rounded=0;orthogonalLoop=1;jettySize=auto;html=1;entryX=0;entryY=0;entryDx=0;entryDy=52.5;entryPerimeter=0;strokeWidth=3;strokeColor=#006633;" parent="1" source="TIKX9eycbTkuqXLnJjCn-95" target="TIKX9eycbTkuqXLnJjCn-136" edge="1">
          <mxGeometry relative="1" as="geometry">
            <Array as="points">
              <mxPoint x="2505" y="363" />
              <mxPoint x="2698" y="363" />
            </Array>
          </mxGeometry>
        </mxCell>
        <mxCell id="TIKX9eycbTkuqXLnJjCn-166" style="edgeStyle=orthogonalEdgeStyle;rounded=0;orthogonalLoop=1;jettySize=auto;html=1;entryX=1;entryY=0;entryDx=0;entryDy=52.5;entryPerimeter=0;strokeWidth=3;strokeColor=#006633;" parent="1" source="TIKX9eycbTkuqXLnJjCn-109" target="TIKX9eycbTkuqXLnJjCn-136" edge="1">
          <mxGeometry relative="1" as="geometry">
            <Array as="points">
              <mxPoint x="3128" y="363" />
              <mxPoint x="2924" y="363" />
            </Array>
          </mxGeometry>
        </mxCell>
        <mxCell id="TIKX9eycbTkuqXLnJjCn-168" value="Topic Per Function" style="shape=image;html=1;verticalAlign=top;verticalLabelPosition=bottom;labelBackgroundColor=#ffffff;imageAspect=0;aspect=fixed;image=https://cdn0.iconfinder.com/data/icons/glyphpack/60/function-128.png" parent="1" vertex="1">
          <mxGeometry x="1261" y="644.25" width="49" height="49" as="geometry" />
        </mxCell>
        <mxCell id="TIKX9eycbTkuqXLnJjCn-170" value="Topic Per Tenant" style="shape=mxgraph.signs.people.man_1;html=1;pointerEvents=1;fillColor=#CC0000;strokeColor=none;verticalLabelPosition=bottom;verticalAlign=top;align=center;" parent="1" vertex="1">
          <mxGeometry x="2668" y="486.25" width="37" height="48" as="geometry" />
        </mxCell>
        <mxCell id="TIKX9eycbTkuqXLnJjCn-172" value="Topic Per Function" style="shape=image;html=1;verticalAlign=top;verticalLabelPosition=bottom;labelBackgroundColor=#ffffff;imageAspect=0;aspect=fixed;image=https://cdn0.iconfinder.com/data/icons/glyphpack/60/function-128.png" parent="1" vertex="1">
          <mxGeometry x="2091" y="535" width="49" height="49" as="geometry" />
        </mxCell>
        <mxCell id="TIKX9eycbTkuqXLnJjCn-173" value="Topic Per Function" style="shape=image;html=1;verticalAlign=top;verticalLabelPosition=bottom;labelBackgroundColor=#ffffff;imageAspect=0;aspect=fixed;image=https://cdn0.iconfinder.com/data/icons/glyphpack/60/function-128.png" parent="1" vertex="1">
          <mxGeometry x="1261" y="328" width="49" height="49" as="geometry" />
        </mxCell>
        <mxCell id="TIKX9eycbTkuqXLnJjCn-174" value="Topic Per Function" style="shape=image;html=1;verticalAlign=top;verticalLabelPosition=bottom;labelBackgroundColor=#ffffff;imageAspect=0;aspect=fixed;image=https://cdn0.iconfinder.com/data/icons/glyphpack/60/function-128.png" parent="1" vertex="1">
          <mxGeometry x="213" y="335.5" width="49" height="49" as="geometry" />
        </mxCell>
        <mxCell id="TIKX9eycbTkuqXLnJjCn-175" value="Topic Per Function" style="shape=image;html=1;verticalAlign=top;verticalLabelPosition=bottom;labelBackgroundColor=#ffffff;imageAspect=0;aspect=fixed;image=https://cdn0.iconfinder.com/data/icons/glyphpack/60/function-128.png" parent="1" vertex="1">
          <mxGeometry x="2540" y="485.25" width="49" height="49" as="geometry" />
        </mxCell>
        <mxCell id="TIKX9eycbTkuqXLnJjCn-176" value="" style="endArrow=classic;html=1;rounded=0;strokeWidth=3;strokeColor=#660000;" parent="1" edge="1">
          <mxGeometry width="50" height="50" relative="1" as="geometry">
            <mxPoint x="2600" y="509.75" as="sourcePoint" />
            <mxPoint x="2650" y="509.75" as="targetPoint" />
          </mxGeometry>
        </mxCell>
        <mxCell id="TIKX9eycbTkuqXLnJjCn-181" value="DACO/Caudron Integration Data Pipeline" style="text;html=1;align=center;verticalAlign=middle;resizable=0;points=[];autosize=1;strokeColor=none;fillColor=none;fontSize=12;fontColor=#000099;labelBackgroundColor=#E6E6E6;" parent="1" vertex="1">
          <mxGeometry x="1940" y="929.01" width="240" height="30" as="geometry" />
        </mxCell>
        <mxCell id="TIKX9eycbTkuqXLnJjCn-205" value="" style="shape=image;html=1;verticalAlign=top;verticalLabelPosition=bottom;labelBackgroundColor=#ffffff;imageAspect=0;aspect=fixed;image=https://cdn1.iconfinder.com/data/icons/unicons-line-vol-5/24/rocket-128.png;imageBackground=#FFFFCC;" parent="1" vertex="1">
          <mxGeometry x="1470" y="316" width="49" height="49" as="geometry" />
        </mxCell>
        <mxCell id="TIKX9eycbTkuqXLnJjCn-208" value="" style="shape=image;html=1;verticalAlign=top;verticalLabelPosition=bottom;labelBackgroundColor=#ffffff;imageAspect=0;aspect=fixed;image=https://cdn1.iconfinder.com/data/icons/unicons-line-vol-5/24/rocket-128.png;imageBackground=#FF9933;" parent="1" vertex="1">
          <mxGeometry x="1470" y="631" width="49" height="49" as="geometry" />
        </mxCell>
        <mxCell id="TIKX9eycbTkuqXLnJjCn-209" value="" style="shape=image;html=1;verticalAlign=top;verticalLabelPosition=bottom;labelBackgroundColor=#ffffff;imageAspect=0;aspect=fixed;image=https://cdn1.iconfinder.com/data/icons/unicons-line-vol-5/24/rocket-128.png;imageBackground=#FFFFCC;" parent="1" vertex="1">
          <mxGeometry x="2290" y="527.75" width="49" height="49" as="geometry" />
        </mxCell>
        <mxCell id="TIKX9eycbTkuqXLnJjCn-210" value="" style="shape=image;html=1;verticalAlign=top;verticalLabelPosition=bottom;labelBackgroundColor=#990000;imageAspect=0;aspect=fixed;image=https://cdn1.iconfinder.com/data/icons/unicons-line-vol-5/24/rocket-128.png;imageBackground=#CC0000;" parent="1" vertex="1">
          <mxGeometry x="2900" y="480.75" width="49" height="49" as="geometry" />
        </mxCell>
        <mxCell id="TIKX9eycbTkuqXLnJjCn-213" value="" style="shape=image;html=1;verticalAlign=top;verticalLabelPosition=bottom;labelBackgroundColor=#ffffff;imageAspect=0;aspect=fixed;image=https://cdn1.iconfinder.com/data/icons/nuvola2/128x128/apps/clanbomber.png" parent="1" vertex="1">
          <mxGeometry x="2894" y="881.25" width="61" height="61" as="geometry" />
        </mxCell>
        <mxCell id="TIKX9eycbTkuqXLnJjCn-214" value="&lt;font style=&quot;font-size: 25px;&quot;&gt;&lt;b style=&quot;font-size: 25px;&quot;&gt;Business Observability vs Caudron/DACO/Kafka Data Pipeline Data Pipeline&lt;/b&gt;&lt;/font&gt;" style="text;html=1;align=center;verticalAlign=middle;resizable=0;points=[];autosize=1;strokeColor=none;fillColor=none;fontSize=25;fontColor=#000099;labelBackgroundColor=#E6E6E6;" parent="1" vertex="1">
          <mxGeometry x="-470" y="-30" width="930" height="40" as="geometry" />
        </mxCell>
        <mxCell id="EmWjDluQkW5w5WpJLdZe-3" value="" style="shape=flexArrow;endArrow=classic;html=1;rounded=0;fillColor=#006600;" edge="1" parent="1">
          <mxGeometry width="50" height="50" relative="1" as="geometry">
            <mxPoint x="3370" y="682.75" as="sourcePoint" />
            <mxPoint x="3420" y="682.75" as="targetPoint" />
          </mxGeometry>
        </mxCell>
        <mxCell id="EmWjDluQkW5w5WpJLdZe-4" value="" style="shape=flexArrow;endArrow=classic;html=1;rounded=0;fillColor=#006600;" edge="1" parent="1">
          <mxGeometry width="50" height="50" relative="1" as="geometry">
            <mxPoint x="3370" y="569.25" as="sourcePoint" />
            <mxPoint x="3420" y="569.25" as="targetPoint" />
          </mxGeometry>
        </mxCell>
        <mxCell id="EmWjDluQkW5w5WpJLdZe-5" value="" style="shape=flexArrow;endArrow=classic;html=1;rounded=0;fillColor=#006600;" edge="1" parent="1">
          <mxGeometry width="50" height="50" relative="1" as="geometry">
            <mxPoint x="1620" y="627.25" as="sourcePoint" />
            <mxPoint x="1670" y="627.25" as="targetPoint" />
          </mxGeometry>
        </mxCell>
        <mxCell id="EmWjDluQkW5w5WpJLdZe-6" value="" style="shape=flexArrow;endArrow=classic;html=1;rounded=0;fillColor=#006600;" edge="1" parent="1">
          <mxGeometry width="50" height="50" relative="1" as="geometry">
            <mxPoint x="1620" y="685.5" as="sourcePoint" />
            <mxPoint x="1670" y="685.5" as="targetPoint" />
          </mxGeometry>
        </mxCell>
        <mxCell id="EmWjDluQkW5w5WpJLdZe-7" value="" style="shape=flexArrow;endArrow=classic;html=1;rounded=0;fillColor=#006600;" edge="1" parent="1">
          <mxGeometry width="50" height="50" relative="1" as="geometry">
            <mxPoint x="1620" y="572" as="sourcePoint" />
            <mxPoint x="1670" y="572" as="targetPoint" />
          </mxGeometry>
        </mxCell>
      </root>
    </mxGraphModel>
  </diagram>
</mxfile>
